inDegrees=no
num_controls=7
num_derivatives=13
num_iterations=128
num_multipliers=7
num_parameters=0
num_slacks=7
num_states=26
objective=6.048308
objective_accelerations=0.626405
objective_balance=0.058060
objective_effort=0.547024
objective_height=4.793248
objective_ligament=0.023570
solver_duration=1328.625104
status=Solve_Succeeded
success=true
DataType=double
version=3
OpenSimVersion=4.4-2022-07-23-0e9fedc
endheader
time	/jointset/ground_pelvis/pelvis_tilt/value	/jointset/ground_pelvis/pelvis_tx/value	/jointset/ground_pelvis/pelvis_ty/value	/jointset/hip_l/hip_flexion_l/value	/jointset/hip_l/hip_adduction_l/value	/jointset/hip_l/hip_rotation_l/value	/jointset/back/lumbar_extension/value	/jointset/patellofemoral_l/patellar_flexion_l/value	/jointset/knee_l/knee_flexion_l/value	/jointset/knee_l/knee_adduction_l/value	/jointset/knee_l/knee_rotation_l/value	/jointset/ankle_l/ankle_angle_l/value	/jointset/subtalar_l/subtalar_angle_l/value	/jointset/ground_pelvis/pelvis_tilt/speed	/jointset/ground_pelvis/pelvis_tx/speed	/jointset/ground_pelvis/pelvis_ty/speed	/jointset/hip_l/hip_flexion_l/speed	/jointset/hip_l/hip_adduction_l/speed	/jointset/hip_l/hip_rotation_l/speed	/jointset/back/lumbar_extension/speed	/jointset/patellofemoral_l/patellar_flexion_l/speed	/jointset/knee_l/knee_flexion_l/speed	/jointset/knee_l/knee_adduction_l/speed	/jointset/knee_l/knee_rotation_l/speed	/jointset/ankle_l/ankle_angle_l/speed	/jointset/subtalar_l/subtalar_angle_l/speed	/forceset/tau_hip_flexion_l	/forceset/tau_hip_adduction_l	/forceset/tau_hip_rotation_l	/forceset/tau_knee_flexion_l	/forceset/tau_ankle_angle_l	/forceset/tau_subtalar_angle_l	/forceset/tau_lumbar_extension	lambda_cid13_p0	lambda_cid13_p1	lambda_cid13_p2	lambda_cid13_p3	lambda_cid13_p4	lambda_cid13_p5	lambda_cid14_p0	/jointset/ground_pelvis/pelvis_tilt/accel	/jointset/ground_pelvis/pelvis_tx/accel	/jointset/ground_pelvis/pelvis_ty/accel	/jointset/hip_l/hip_flexion_l/accel	/jointset/hip_l/hip_adduction_l/accel	/jointset/hip_l/hip_rotation_l/accel	/jointset/back/lumbar_extension/accel	/jointset/patellofemoral_l/patellar_flexion_l/accel	/jointset/knee_l/knee_flexion_l/accel	/jointset/knee_l/knee_adduction_l/accel	/jointset/knee_l/knee_rotation_l/accel	/jointset/ankle_l/ankle_angle_l/accel	/jointset/subtalar_l/subtalar_angle_l/accel	gamma_cid13_p0	gamma_cid13_p1	gamma_cid13_p2	gamma_cid13_p3	gamma_cid13_p4	gamma_cid13_p5	gamma_cid14_p0
0.5	-0.1401422548586447	-0.05654718474314393	0.7926971060734757	1.019321355002437	-0.326182194939427	-0.07775238400173262	-0.7979397670089328	0.9414618145001689	0.9414618145001378	-0.0913414805481394	-0.1745178174659952	0.1279908745312719	0.009692758212049957	-0.2465024404492605	-0.1810077653445472	-0.4662817719917884	1.832431962272349	-0.01515577672406694	0.5470799816146645	-0.8330966702097717	1.838021757538904	1.838021757538882	0.1997091219814739	5.334854784232052e-05	0.3778149182256246	0.1107689790705817	-0.302418331172907	0.02065973095447929	-0.005871871454850747	-0.2342027576559969	0.0957040502106552	0.0477581209287406	0.3447057028024917	-13.193597723757	-19.68776658809412	4.119706917636287	-11.38273174868542	-700.4122405878286	-72.71520842070852	-8.910813081986772	0.4011192465047382	0.7679216439053577	-0.221772720605536	-1.621095727049318	0.3298995686669275	-0.6043279549214439	1.987768250648791	-1.393301149894452	-1.39330114989453	-0.1390021328281519	-0.004660704001031136	-0.2475708275717375	0.3348219145263052	-3.066645395430223e-07	-1.693785791053554e-07	1.857808810484044e-06	1.901874238929426e-07	-3.464996810291866e-07	6.388269637569303e-08	-2.601860227874508e-07
0.51	-0.1425867741142387	-0.05831884729480574	0.7880242303502218	1.037561827241829	-0.3263183229703013	-0.07231054291574601	-0.8061706340710002	0.9597695134645257	0.9597695134644502	-0.08935457994765583	-0.1745174387010987	0.1317555573422974	0.0108156229451392	-0.2423632273454833	-0.1733248924375549	-0.4681889573551254	1.815416062434467	-0.01208262318658086	0.54123336267512	-0.8129967828035037	1.823259111601864	1.823259111601832	0.1976529579211584	2.293863830957545e-05	0.3750523949583801	0.1137701059975539	-0.3097518740784978	0.02084834348815488	-0.006033906588474633	-0.2374408135001562	0.0948350851125325	0.04779579107869422	0.3516203318542176	-13.76408519870994	-19.5296437031262	4.0092917832135	-11.1639408658226	-705.4491561850176	-72.45929349799214	-8.155865685494193	0.426021829461266	0.7684859369466306	-0.1595968922337522	-1.778838465987585	0.2938589867293409	-0.5833072304094737	2.033092894832946	-1.556533325656208	-1.556533325657544	-0.2416297525566397	-0.00178166733568866	-0.3009762074062458	0.2774877378764873	-2.980353928282203e-07	-1.599617835992397e-07	1.829451628055929e-06	1.873258122228704e-07	-3.32603007626255e-07	1.020180137825963e-07	-2.565909874920911e-07
0.52	-0.1449887613413367	-0.060013677952826	0.7833354016837274	1.055624740212106	-0.326424152317709	-0.06692886369253734	-0.8141981034771574	0.9779218285674872	0.9779218285673761	-0.08738878222972669	-0.1745172741418912	0.1354905382944316	0.01196744487871717	-0.2379960347559165	-0.1656413866162365	-0.4694723606399215	1.796920108443389	-0.009096040031504424	0.5350476090580319	-0.7924171390286222	1.806944985262923	1.806944985262882	0.1954885454639096	1.050741253123317e-05	0.3718745464469238	0.1165604191682837	-0.3170854169840429	0.02103695602186402	-0.006195941721808262	-0.2406788693443156	0.09396612001440884	0.04783346122868163	0.3585349609059789	-14.33595984175667	-19.37241857843409	3.900324285008686	-10.9958451129599	-710.5409775703083	-72.26435289452176	-7.412327953086671	0.4467151436619107	0.7680482267710783	-0.09701630489726726	-1.917106557688745	0.3125854921849218	-0.6721548904302102	2.083719524371054	-1.703597230274748	-1.703597230274753	-0.1606518122149294	-0.00106496725025393	-0.3306358764134332	0.2926591632779623	-2.904350874364187e-07	-1.639289885733577e-07	1.795781013450088e-06	1.825399776970253e-07	-3.202452693809171e-07	1.363511692363731e-07	-2.54253767846202e-07
0.53	-0.1473459992987155	-0.06163171041684746	0.7786368824503265	1.073495422443443	-0.3265005409612379	-0.06161079860790971	-0.8220175088395604	0.9959034044379164	0.995903404437982	-0.08544504249390664	-0.1745172573251476	0.1391917861678692	0.01314615023719305	-0.2334171905215262	-0.157968537552435	-0.4701245003914132	1.776976329156416	-0.006195750344093099	0.5285081512314064	-0.7713986342129507	1.789123934055922	1.789123934055894	0.1932486565459926	-8.460070958555062e-06	0.3683175777085695	0.1191485397583979	-0.3240722825263475	0.02111342990775254	-0.006307218251687705	-0.2442198104160022	0.09342294426724186	0.04761718294440917	0.3651432640186791	-14.81077319992856	-19.11274369070728	3.764565058743733	-10.82761978660755	-715.5647978700912	-71.91874582661033	-6.704137262839483	0.4685975058225273	0.7664245480427235	-0.03332771354691748	-2.069050631067038	0.2764062938958406	-0.653669066648935	2.120710845258885	-1.858246675641013	-1.858246675639214	-0.2572808731635332	-0.002152004737103978	-0.376841254668247	0.2368895976955265	-2.790249690003377e-07	-1.452596446166281e-07	1.757305843389089e-06	1.794579319098188e-07	-3.043469312980829e-07	1.733533259719107e-07	-2.479624140121202e-07
0.54	-0.1496564231252249	-0.06317311012985789	0.773935038838756	1.091159459478562	-0.3265483955905156	-0.05635989366909722	-0.8296247701767849	1.013699392274307	1.013699392274573	-0.0835240263355299	-0.1745173980564362	0.1428557415775029	0.01434973701973378	-0.2286332085874282	-0.1503148364140301	-0.4701372362738059	1.755591069194825	-0.003389237181634471	0.5216155798899702	-0.7499883339935981	1.769827378459787	1.769827378459771	0.1909438299647425	-2.100218798879505e-05	0.3644160536853484	0.1215367039812149	-0.3310591480686144	0.02118990379371796	-0.006418494781162984	-0.2477607514876865	0.09287976852008833	0.04740090466022412	0.3717515671313982	-15.28683341654167	-18.85615907304662	3.633079248422398	-10.71522697801056	-720.6372002068256	-71.63506829541824	-6.033599777440797	0.4877426836027175	0.7642186416922225	0.03086446892260715	-2.205402692612287	0.293830187194331	-0.7427775933923294	2.162078605106922	-1.998698108101569	-1.998698108101543	-0.1736393448816761	0.0002201060416021745	-0.3995469333861932	0.2526678898186758	-2.633997382599476e-07	-1.015456082257689e-07	1.713514994952169e-06	1.782609289823826e-07	-2.845313338205721e-07	2.133084202957796e-07	-2.372962734166336e-07
0.55	-0.1519180386170514	-0.06463816213198816	0.7692362714320864	1.108602614553882	-0.326568612368535	-0.05117962744224647	-0.8370160505806269	1.031295146709128	1.031295146709305	-0.08162631086710978	-0.1745176109118763	0.1464789816314478	0.01557624154687672	-0.2236587850678856	-0.142707864573519	-0.4695081202119311	1.732809038371456	-0.0006731556075374994	0.5143805054028782	-0.7282128215383631	1.749082253242545	1.749082253242533	0.1885838463931318	-2.72471406138323e-05	0.360172771296634	0.1237245030071389	-0.3379604585100539	0.02113226156706203	-0.006471257637662921	-0.2510993819979181	0.09176632968875717	0.04718422151345067	0.3781783882929772	-15.94634307150172	-18.57037275052396	3.500471376749268	-10.3341410775488	-725.6079695564	-71.35058595455806	-5.401425043966243	0.5069341741726199	0.7571268937644614	0.09509915774124447	-2.349271554216044	0.2574100652210117	-0.7226621666058864	2.193526350480086	-2.148561722177101	-2.148561722176328	-0.2694963841826767	-0.001556614430234975	-0.4455889921275114	0.1956951820834737	-2.450480633976293e-07	-4.451611409704397e-08	1.666162558811379e-06	1.776902671176319e-07	-2.626456998244262e-07	2.5206779301128e-07	-2.239025839022797e-07
0.5600000000000001	-0.1541289814760498	-0.06602750632800523	0.7645470279826194	1.125811015665589	-0.3265622857462718	-0.04607346991827784	-0.8441879281029646	1.048676221493035	1.048676221493131	-0.07975265893855789	-0.1745179881805666	0.1500580148414077	0.01682339591889997	-0.218498682026728	-0.1351732751913954	-0.4682324448332349	1.708640276467412	0.001919442874681203	0.5067938393062591	-0.7061077576932582	1.72689144827964	1.726891448279634	0.1861311219862544	-5.388483385776889e-05	0.3555746848873872	0.1256666729572403	-0.3448617689514566	0.02107461934050454	-0.006524020494059912	-0.2544380125081431	0.09065289085744742	0.04696753836679769	0.3846052094545716	-16.607817556432	-18.28761813569463	3.372204222972545	-10.00422132654183	-730.6343106802158	-71.12562614992132	-4.807994835970382	0.5248785879250323	0.7497421500151074	0.1601763322869597	-2.482748908747254	0.2691335688186214	-0.8130959152977369	2.227988883080554	-2.287834057234033	-2.287834057234082	-0.1921875119351368	-0.00385844208218817	-0.4705077374921324	0.2035420746543162	-2.234246555889975e-07	2.849192931711931e-08	1.614536217425945e-06	1.778712145281037e-07	-2.382760220059184e-07	2.893922997967384e-07	-2.072358356852853e-07
